<svg xmlns="http://www.w3.org/2000/svg" width="1200" height="675" viewBox="0 0 1200 675" role="img" aria-labelledby="title desc">
  <title id="title">办公数据和文件自动化服务封面</title>
  <desc id="desc">99 元起，CSV、Excel、JSON 清洗转换和批量文件整理。</desc>
  <rect width="1200" height="675" fill="#f6f7f9"/>
  <rect x="64" y="56" width="1072" height="563" rx="18" fill="#ffffff" stroke="#dfe4ec" stroke-width="2"/>
  <rect x="96" y="92" width="220" height="52" rx="26" fill="#e7f5f2"/>
  <text x="124" y="126" font-family="Microsoft YaHei, Segoe UI, sans-serif" font-size="24" font-weight="700" fill="#0f766e">99 元起</text>
  <text x="96" y="214" font-family="Microsoft YaHei, Segoe UI, sans-serif" font-size="56" font-weight="800" fill="#172033">办公数据和文件自动化</text>
  <text x="96" y="278" font-family="Microsoft YaHei, Segoe UI, sans-serif" font-size="30" fill="#4b5563">CSV / Excel / JSON 清洗转换，批量重命名和日志汇总</text>
  <g transform="translate(96 346)">
    <rect width="300" height="86" rx="12" fill="#f1f5f9"/>
    <text x="28" y="54" font-family="Microsoft YaHei, Segoe UI, sans-serif" font-size="28" fill="#172033">字段映射</text>
    <rect x="330" width="300" height="86" rx="12" fill="#f1f5f9"/>
    <text x="358" y="54" font-family="Microsoft YaHei, Segoe UI, sans-serif" font-size="28" fill="#172033">去重清洗</text>
    <rect x="660" width="300" height="86" rx="12" fill="#f1f5f9"/>
    <text x="688" y="54" font-family="Microsoft YaHei, Segoe UI, sans-serif" font-size="28" fill="#172033">错误行报告</text>
  </g>
  <g transform="translate(820 112)">
    <rect x="0" y="0" width="240" height="170" rx="12" fill="#0f766e"/>
    <rect x="28" y="34" width="184" height="20" rx="5" fill="#ffffff" opacity=".95"/>
    <rect x="28" y="72" width="136" height="20" rx="5" fill="#ffffff" opacity=".8"/>
    <rect x="28" y="110" width="166" height="20" rx="5" fill="#ffffff" opacity=".65"/>
  </g>
  <text x="96" y="536" font-family="Microsoft YaHei, Segoe UI, sans-serif" font-size="26" fill="#0f766e">交付：可运行脚本 + 说明 + 验证结果 + 一次小修改</text>
</svg>
